<svg width="76" height="76" viewBox="0 0 76 76" fill="none" xmlns="http://www.w3.org/2000/svg">
<path d="M29.9234 48.2948L28.5697 44.2637H20.6578L19.304 48.2948H14.25L21.8912 28.5H28.0282L35.6693 48.2948H29.9234ZM21.6806 41.1952H27.5468L24.6288 32.5312H24.5686L21.6806 41.1952Z" fill="white"/>
<path d="M50.2626 48.2948L48.9088 44.2637H40.9969L39.6432 48.2948H34.5892L42.2303 28.5H48.3673L56.0085 48.2948H50.2626ZM42.0197 41.1952H47.886L44.9679 32.5312H44.9077L42.0197 41.1952Z" fill="white"/>
<path d="M60.08 38.7917V35.1191H56.207V32.1726H60.08V28.5H63.4174V32.1726H67.2904V35.1191H63.4174V38.7917H60.08Z" fill="white"/>
</svg>
