<svg width="50" height="50" viewBox="0 0 50 50" fill="none" xmlns="http://www.w3.org/2000/svg">
    <g clip-path="url(#clip0_806_13359)">
        <path d="M0 24.9996C0 29.3307 1.10186 33.4043 3.03975 36.9561L25 39.1301L46.9603 36.9561C48.8981 33.4043 50 29.3307 50 24.9996C50 20.6686 48.8981 16.5949 46.9603 13.0431L25 10.8691L3.03975 13.0431C1.10186 16.5949 0 20.6686 0 24.9996H0Z" fill="#D80027"/>
        <path d="M3.03979 13.0435H46.9602C42.7202 5.27236 34.4761 0 25 0C15.524 0 7.27993 5.27236 3.03979 13.0435Z" fill="#0052B4"/>
        <path d="M25 50.0005C34.4761 50.0005 42.7202 44.7281 46.9603 36.957H3.03979C7.27993 44.7281 15.524 50.0005 25 50.0005Z" fill="#0052B4"/>
        <path d="M33.6955 29.8912V26.6304H31.5217V22.2825L29.3478 20.1086L27.1738 22.2825V17.9347L24.9999 15.7607L22.826 17.9347V22.2825L20.6521 20.1086L18.4781 22.2825V26.6304H16.3043V29.8912H14.1304V33.1521H35.8694V29.8912H33.6955Z" fill="#F0F0F0"/>
    </g>
    <defs>
        <clipPath id="clip0_806_13359">
            <rect width="50" height="50" fill="white"/>
        </clipPath>
    </defs>
</svg>
