<svg width="50" height="50" viewBox="0 0 50 50" fill="none" xmlns="http://www.w3.org/2000/svg">
    <g clip-path="url(#clip0_806_8756)">
        <path d="M48.445 33.696C49.45 30.9878 50 28.0584 50 25.0004C50 21.9424 49.45 19.013 48.445 16.3048L25 14.1309L1.55498 16.3048C0.550098 19.013 0 21.9424 0 25.0004C0 28.0584 0.550098 30.9878 1.55498 33.696L25 35.8699L48.445 33.696Z" fill="#6DA544"/>
        <path d="M48.4452 16.3044C44.9129 6.78437 35.7493 0 25.0002 0C14.2511 0 5.0875 6.78437 1.55518 16.3044H48.4452Z" fill="#FFDA44"/>
        <path d="M25.0002 49.9997C35.7493 49.9997 44.9129 43.2153 48.4452 33.6953H1.55518C5.0875 43.2153 14.2511 49.9997 25.0002 49.9997Z" fill="#D80027"/>
        <path d="M42.1434 21.1507H29.047L24.9999 8.69531L20.9528 21.1507H7.85645L18.4517 28.8485L14.4046 41.3041L24.9999 33.6953L35.5952 41.304L31.5482 28.8484L42.1434 21.1507Z" fill="#F0F0F0"/>
    </g>
    <defs>
        <clipPath id="clip0_806_8756">
            <rect width="50" height="50" rx="25" fill="white"/>
        </clipPath>
    </defs>
</svg>
