<svg width="50" height="50" viewBox="0 0 50 50" fill="none" xmlns="http://www.w3.org/2000/svg">
<g clip-path="url(#clip0_1629_16992)">
<path d="M25 50C38.81 50 50 38.81 50 25C50 11.19 38.81 0 25 0C11.19 0 0 11.19 0 25C0 38.81 11.19 50 25 50Z" fill="#F0F0F0"/>
<path d="M12.1494 18.5091L18.5134 12.1451L17.0992 10.7309L10.7352 17.0949L12.1494 18.5091Z" fill="black"/>
<path d="M10.0275 16.3891L16.3915 10.0251L14.9773 8.6109L8.61332 14.9749L10.0275 16.3891Z" fill="black"/>
<path d="M7.90567 14.2691L14.2696 7.90512L12.8554 6.49091L6.49146 12.8549L7.90567 14.2691Z" fill="black"/>
<path d="M6.48682 37.1498L12.8508 43.5138L14.265 42.0996L7.90103 35.7356L6.48682 37.1498Z" fill="black"/>
<path d="M8.60645 35.0307L11.4349 37.8591L12.8491 36.4449L10.0207 33.6165L8.60645 35.0307Z" fill="black"/>
<path d="M10.7306 32.8998L17.0945 39.2638L18.5087 37.8496L12.1448 31.4856L10.7306 32.8998Z" fill="black"/>
<path d="M12.1464 38.5544L14.9749 41.3829L16.3891 39.9687L13.5607 37.1402L12.1464 38.5544Z" fill="black"/>
<path d="M35.03 41.3881L37.8584 38.5597L36.4442 37.1455L33.6158 39.9739L35.03 41.3881Z" fill="black"/>
<path d="M38.56 37.8545L41.3884 35.0261L39.9742 33.6118L37.1458 36.4403L38.56 37.8545Z" fill="black"/>
<path d="M37.1518 43.5081L39.9803 40.6797L38.566 39.2655L35.7376 42.0939L37.1518 43.5081Z" fill="black"/>
<path d="M40.6818 39.9745L43.5103 37.1461L42.096 35.7318L39.2676 38.5603L40.6818 39.9745Z" fill="black"/>
<path d="M32.8981 39.2681L35.7265 36.4397L34.3123 35.0255L31.4839 37.8539L32.8981 39.2681Z" fill="black"/>
<path d="M36.4381 35.7344L39.2665 32.906L37.8523 31.4918L35.0239 34.3202L36.4381 35.7344Z" fill="black"/>
<path d="M33.6134 10.0298L39.9773 16.3937L41.3915 14.9795L35.0276 8.61556L33.6134 10.0298Z" fill="black"/>
<path d="M31.4893 12.1507L34.3177 14.9791L35.7319 13.5649L32.9035 10.7365L31.4893 12.1507Z" fill="black"/>
<path d="M35.0193 15.6744L37.8477 18.5028L39.2619 17.0886L36.4335 14.2602L35.0193 15.6744Z" fill="black"/>
<path d="M35.733 7.91071L38.5614 10.7391L39.9756 9.32492L37.1472 6.4965L35.733 7.91071Z" fill="black"/>
<path d="M39.273 11.4344L42.1014 14.2628L43.5156 12.8486L40.6872 10.0202L39.273 11.4344Z" fill="black"/>
<path d="M28.0801 16.54C23.4101 14.84 18.2401 17.25 16.5401 21.92C15.6901 24.26 16.8901 26.84 19.2301 27.69C21.5701 28.54 24.1501 27.34 25.0001 25C25.8501 22.66 28.4301 21.46 30.7701 22.31C33.1101 23.16 34.3101 25.74 33.4601 28.08C35.1601 23.41 32.7501 18.24 28.0801 16.54Z" fill="#D80027"/>
<path d="M30.7701 22.31C28.4301 21.46 25.8501 22.66 25.0001 25C24.1501 27.34 21.5701 28.54 19.2301 27.69C16.8901 26.84 15.6901 24.26 16.5401 21.92C14.8401 26.59 17.2501 31.76 21.9201 33.46C26.5901 35.16 31.7601 32.75 33.4601 28.08C34.3101 25.74 33.1101 23.16 30.7701 22.31Z" fill="#0052B4"/>
</g>
<defs>
<clipPath id="clip0_1629_16992">
<rect width="50" height="50" fill="white"/>
</clipPath>
</defs>
</svg>
